<?xml version="1.0" standalone="no"?>
<!DOCTYPE svg PUBLIC "-//W3C//DTD SVG 20010904//EN"
 "http://www.w3.org/TR/2001/REC-SVG-20010904/DTD/svg10.dtd">
<svg version="1.0" xmlns="http://www.w3.org/2000/svg"
 width="700.000000pt" height="700.000000pt" viewBox="0 0 700.000000 700.000000"
 preserveAspectRatio="xMidYMid meet">
<metadata>
Created by potrace 1.14, written by Peter Selinger 2001-2017
</metadata>
<g transform="translate(0.000000,700.000000) scale(0.100000,-0.100000)"
fill="#000000" stroke="none">
<path d="M94 3500 l1 -3500 2553 0 2554 0 137 86 c75 47 145 91 155 97 11 7
75 47 144 90 69 43 128 74 131 69 3 -5 58 -84 121 -175 l115 -166 453 -1 c360
0 452 3 446 13 -4 6 -71 106 -149 222 -78 116 -285 424 -460 685 -175 261
-322 479 -326 484 -6 7 -178 -106 -407 -270 -31 -22 -192 -134 -357 -249 -165
-114 -502 -348 -748 -519 -246 -171 -463 -321 -482 -334 -36 -23 -44 -23 -22
0 7 7 44 53 82 103 38 50 75 97 82 105 13 16 247 312 292 369 14 19 31 39 36
45 6 6 38 47 72 91 34 44 186 238 337 430 152 193 287 364 300 380 205 259
258 325 264 325 6 0 472 -373 642 -513 8 -7 87 -70 175 -142 88 -71 194 -156
235 -190 41 -33 145 -117 230 -185 85 -69 166 -135 180 -147 13 -12 26 -20 29
-18 2 3 5 195 5 428 l1 422 -27 26 c-15 14 -226 186 -470 382 -244 196 -506
407 -583 469 -77 62 -244 198 -372 300 l-232 188 -203 -264 c-112 -146 -257
-335 -323 -422 -107 -141 -860 -1123 -919 -1199 -40 -51 -358 -465 -426 -555
-36 -47 -70 -92 -77 -100 -7 -8 -69 -89 -139 -180 -69 -91 -128 -167 -130
-169 -4 -4 1606 3211 1610 3215 1 2 168 -78 411 -196 206 -100 362 -176 680
-330 88 -43 250 -121 360 -175 110 -53 254 -123 320 -155 66 -32 208 -101 315
-153 107 -52 197 -91 200 -87 3 5 5 185 5 402 l-1 393 -84 42 c-47 24 -283
140 -525 259 -242 119 -573 282 -735 361 -162 80 -385 189 -495 243 -110 54
-346 170 -524 259 -179 89 -328 158 -332 154 -4 -5 -51 -102 -104 -218 -131
-282 -155 -334 -208 -445 -71 -151 -196 -417 -224 -479 -14 -31 -54 -116 -89
-190 -35 -73 -64 -135 -64 -136 0 -2 -29 -63 -63 -136 -35 -74 -72 -152 -82
-174 -10 -22 -49 -105 -87 -184 -37 -79 -68 -145 -68 -147 0 -2 -31 -69 -70
-150 -38 -80 -70 -148 -70 -149 0 -1 -29 -63 -64 -136 -35 -74 -74 -156 -86
-184 -12 -27 -43 -93 -67 -145 -25 -52 -92 -195 -149 -317 -57 -123 -108 -231
-113 -240 -5 -10 -18 -38 -29 -63 -24 -55 -85 -185 -162 -345 -31 -66 -69
-147 -84 -180 -35 -79 -99 -205 -92 -181 76 241 214 682 244 781 22 72 58 186
80 255 22 69 70 222 107 340 37 118 80 258 97 310 16 52 59 190 95 305 36 116
69 221 73 235 27 85 272 866 339 1085 98 317 334 1073 339 1085 3 8 5 18 4 22
-1 4 4 5 11 3 28 -9 275 -84 307 -93 41 -12 391 -118 435 -132 55 -18 588
-179 1040 -314 121 -37 247 -75 280 -86 53 -17 278 -85 1008 -305 124 -37 207
-58 208 -51 4 51 3 740 -1 746 -5 7 -98 34 -475 141 -77 21 -171 49 -210 60
-83 24 -97 28 -122 34 -10 2 -43 11 -73 20 -30 9 -100 29 -155 44 -142 40
-1782 504 -2393 678 -282 80 -515 143 -519 139 -3 -3 -58 -189 -120 -414 -104
-371 -146 -522 -278 -992 -24 -85 -67 -236 -95 -335 -28 -99 -53 -187 -55
-195 -4 -17 -294 -1049 -405 -1440 -40 -140 -81 -284 -90 -320 -10 -36 -35
-123 -55 -195 -20 -71 -45 -159 -55 -195 -10 -36 -55 -195 -100 -355 -45 -159
-102 -362 -127 -450 -98 -348 -122 -430 -122 -424 -1 4 8 73 19 155 11 82 22
167 25 189 9 68 14 108 21 155 3 25 7 56 9 70 10 72 35 261 40 300 3 25 7 56
10 70 2 14 7 50 10 80 4 30 8 66 10 80 2 14 6 45 10 70 3 25 8 56 10 70 2 14
7 50 10 80 3 30 8 62 10 70 2 8 7 44 10 80 4 36 9 73 11 84 2 10 6 44 9 75 4
31 8 63 10 71 2 8 7 39 10 69 4 30 8 62 10 72 2 10 7 49 10 86 4 37 9 70 10
73 2 3 6 34 10 70 4 36 9 72 10 81 2 9 6 40 10 70 6 55 9 75 19 144 4 22 8 58
11 80 3 21 9 73 15 115 6 42 13 92 15 113 3 20 7 54 10 74 2 21 9 71 15 113 5
41 12 98 16 125 3 28 7 57 9 65 1 8 6 40 10 70 3 30 8 66 10 80 3 14 7 48 10
75 3 28 15 111 25 185 11 74 22 160 25 190 3 30 8 62 10 70 2 8 7 44 10 80 4
36 8 67 10 70 2 3 6 37 9 75 4 39 8 77 11 85 2 8 6 38 9 65 6 45 11 83 21 155
2 14 13 97 25 185 11 88 25 189 30 225 5 36 12 85 15 110 3 25 10 79 16 120 6
41 12 91 14 110 3 19 7 55 11 80 3 25 8 57 10 73 10 79 25 196 30 227 2 19 7
53 10 74 6 53 8 55 56 46 24 -5 68 -11 98 -15 30 -3 78 -10 105 -15 28 -5 73
-12 100 -15 28 -3 61 -8 75 -10 14 -2 75 -11 135 -20 136 -19 173 -24 205 -30
14 -2 61 -9 106 -15 44 -6 91 -13 105 -15 13 -3 48 -8 78 -11 30 -3 57 -7 60
-9 3 -1 35 -6 71 -10 36 -4 67 -8 70 -10 3 -2 30 -6 60 -10 30 -3 80 -10 110
-15 30 -5 75 -12 100 -15 25 -3 56 -7 70 -10 14 -3 41 -7 60 -9 19 -2 85 -11
145 -20 61 -9 128 -19 150 -22 22 -3 51 -7 65 -9 34 -6 214 -32 270 -40 25 -3
56 -8 70 -10 14 -2 45 -6 70 -10 25 -3 56 -8 70 -10 14 -2 44 -7 67 -10 23 -3
57 -8 75 -10 18 -3 51 -7 73 -10 22 -3 65 -10 95 -15 30 -5 82 -12 115 -16 33
-3 63 -8 66 -10 3 -1 32 -6 65 -9 32 -3 66 -8 74 -10 8 -2 35 -7 60 -10 25 -3
88 -12 140 -20 52 -8 113 -16 135 -19 58 -8 386 -56 415 -61 14 -2 45 -7 70
-10 25 -3 56 -8 70 -10 22 -3 138 -20 210 -30 14 -2 45 -6 70 -10 25 -4 56 -8
70 -10 14 -2 43 -6 65 -10 41 -6 80 -11 149 -21 21 -3 58 -9 81 -13 24 -5 47
-5 52 -2 8 6 12 701 3 701 -13 1 -187 25 -255 35 -16 2 -52 7 -80 10 -27 4
-57 8 -65 10 -8 3 -42 7 -74 11 -33 3 -67 7 -75 9 -25 4 -92 14 -136 20 -22 2
-89 12 -150 20 -60 9 -126 18 -145 21 -20 2 -45 6 -55 8 -11 2 -47 7 -80 11
-33 4 -69 9 -80 10 -11 2 -58 8 -105 15 -47 6 -96 13 -110 15 -51 7 -176 25
-225 31 -27 3 -59 8 -69 10 -11 2 -56 8 -100 14 -45 6 -92 13 -106 15 -14 2
-63 9 -110 15 -47 6 -96 13 -110 15 -14 2 -59 8 -100 14 -41 6 -91 12 -110 15
-19 3 -71 10 -115 16 -44 6 -96 14 -115 16 -19 3 -46 7 -60 9 -25 4 -153 21
-220 30 -33 4 -132 18 -210 29 -69 10 -266 37 -305 42 -22 3 -65 9 -95 14 -30
5 -77 12 -105 15 -27 3 -61 7 -75 10 -14 3 -43 7 -65 10 -22 2 -71 9 -110 14
-38 6 -92 13 -120 16 -27 3 -61 8 -75 10 -14 3 -41 7 -60 10 -50 6 -191 26
-220 30 -14 2 -45 6 -70 9 -25 3 -54 7 -65 10 -12 2 -48 7 -80 11 -33 4 -71 9
-85 11 -14 2 -74 11 -135 19 -60 9 -126 18 -145 21 -82 12 -329 45 -376 50
l-52 6 -7 -53 c-3 -30 -8 -65 -10 -79 -2 -14 -20 -149 -40 -300 -19 -151 -38
-291 -41 -310 -2 -19 -16 -118 -29 -220 -14 -102 -27 -198 -30 -215 -2 -16 -7
-52 -10 -80 -4 -27 -13 -97 -21 -155 -8 -58 -17 -121 -19 -140 -7 -59 -45
-341 -55 -410 -5 -36 -12 -85 -15 -110 -3 -25 -8 -63 -11 -85 -9 -64 -12 -87
-19 -145 -4 -30 -9 -62 -10 -71 -2 -9 -6 -40 -10 -70 -3 -30 -8 -65 -10 -79
-4 -26 -11 -76 -20 -150 -3 -25 -10 -76 -16 -115 -12 -85 -17 -127 -24 -180
-3 -22 -7 -51 -10 -65 -2 -14 -7 -52 -10 -85 -4 -33 -8 -67 -10 -75 -2 -8 -7
-40 -10 -70 -3 -30 -9 -68 -11 -85 -3 -16 -7 -46 -9 -65 -2 -19 -6 -48 -9 -65
-6 -40 -14 -100 -21 -155 -9 -68 -16 -122 -20 -150 -2 -14 -7 -49 -10 -79 -4
-30 -8 -63 -11 -74 -2 -10 -6 -45 -9 -76 -4 -31 -8 -63 -10 -71 -2 -8 -7 -40
-10 -70 -3 -30 -8 -66 -10 -80 -21 -142 -26 -180 -29 -210 -3 -31 -31 -235
-41 -300 -2 -14 -6 -47 -10 -75 -10 -87 -17 -139 -20 -156 -2 -9 -6 -40 -10
-70 -3 -30 -8 -65 -10 -79 -2 -14 -7 -44 -10 -67 -10 -86 -16 -129 -25 -188
-5 -33 -12 -83 -15 -111 -3 -28 -8 -61 -10 -75 -3 -13 -7 -44 -10 -69 -9 -81
-38 -299 -50 -370 -2 -14 -6 -50 -10 -80 -3 -30 -7 -64 -10 -75 -2 -11 -4 -33
-4 -49 -1 -16 -4 -27 -7 -23 -8 7 -9 6241 -1 6253 3 5 1385 9 3071 9 2125 -1
3066 2 3067 10 0 5 1 156 2 335 l0 325 -3410 3 -3410 2 1 -3500z"/>
</g>
</svg>
