<svg width="1717" height="138" viewBox="0 0 1717 138" fill="none" xmlns="http://www.w3.org/2000/svg">
<path d="M0.0476074 136V2.2627H77.3616C83.7034 2.2627 89.3302 3.16423 94.2419 4.96729C99.1537 6.77035 103.257 9.25732 106.552 12.4282C109.91 15.5369 112.428 19.2052 114.107 23.4331C115.848 27.5988 116.718 32.0754 116.718 36.8628C116.718 40.5311 116.158 43.9196 115.039 47.0283C113.982 50.137 112.552 52.9349 110.749 55.4219C108.946 57.9089 106.832 60.0539 104.407 61.8569C102.045 63.5978 99.5268 64.9657 96.8533 65.9604C99.8998 67.0174 102.884 68.4785 105.806 70.3438C108.729 72.1468 111.34 74.3851 113.64 77.0586C115.941 79.6699 117.775 82.7476 119.143 86.2915C120.573 89.8354 121.288 93.8457 121.288 98.3223C121.288 103.545 120.355 108.457 118.49 113.058C116.687 117.596 113.951 121.576 110.283 124.995C106.677 128.415 102.107 131.119 96.5735 133.109C91.1021 135.036 84.6982 136 77.3616 136H0.0476074ZM77.3616 125.182C87.7447 125.182 95.672 122.912 101.143 118.374C106.615 113.835 109.35 107.151 109.35 98.3223C109.35 93.9701 108.542 90.1152 106.926 86.7578C105.371 83.4004 103.164 80.6025 100.304 78.3643C97.5061 76.0638 94.1487 74.354 90.2317 73.2349C86.3147 72.0535 82.0247 71.4629 77.3616 71.4629H11.7986V125.182H77.3616ZM77.3616 60.6445C81.1542 60.6445 84.6982 60.1782 87.9934 59.2456C91.3508 58.313 94.273 56.883 96.76 54.9556C99.247 53.0282 101.205 50.5723 102.635 47.5879C104.066 44.5413 104.781 40.9663 104.781 36.8628C104.781 32.7593 104.128 29.2153 102.822 26.231C101.579 23.1844 99.7755 20.6974 97.4128 18.77C95.0502 16.8426 92.1591 15.4126 88.7395 14.48C85.3821 13.5474 81.5894 13.0811 77.3616 13.0811H11.7986V60.6445H77.3616Z" fill="white"/>
<path d="M152.027 125.182H245.102V136H140.276V2.2627H152.027V125.182Z" fill="white"/>
<path d="M372.087 93.5659H291.509L268.567 136H255.697L327.974 2.2627H335.622L407.9 136H395.03L372.087 93.5659ZM297.291 82.7476H366.212L331.798 18.9565L297.291 82.7476Z" fill="white"/>
<path d="M419.24 69.1313C419.24 76.9653 420.515 84.3952 423.064 91.4209C425.675 98.4466 429.717 104.602 435.188 109.887C440.659 115.109 447.623 119.275 456.079 122.384C464.534 125.493 474.638 127.047 486.389 127.047C496.15 127.047 504.792 125.897 512.316 123.596C519.901 121.234 526.429 118.342 531.901 114.923L538.429 123.689C531.963 128.166 524.408 131.648 515.766 134.135C507.124 136.622 497.332 137.865 486.389 137.865C473.332 137.865 461.861 136.093 451.975 132.549C442.09 128.943 433.82 124.062 427.168 117.907C420.515 111.69 415.51 104.415 412.152 96.084C408.795 87.6904 407.116 78.7062 407.116 69.1313C407.116 59.5565 408.795 50.6034 412.152 42.272C415.51 33.8784 420.515 26.604 427.168 20.4487C433.82 14.2313 442.09 9.35059 451.975 5.80664C461.861 2.20052 473.332 0.397461 486.389 0.397461C497.332 0.397461 507.124 1.64095 515.766 4.12793C524.408 6.61491 531.963 10.0967 538.429 14.5732L531.901 23.3398C526.429 19.9202 519.901 17.0602 512.316 14.7598C504.792 12.3971 496.15 11.2158 486.389 11.2158C474.638 11.2158 464.534 12.7702 456.079 15.8789C447.623 18.9876 440.659 23.1844 435.188 28.4692C429.717 33.6919 425.675 39.8161 423.064 46.8418C420.515 53.8675 419.24 61.2974 419.24 69.1313Z" fill="white"/>
<path d="M658.513 2.2627H675.3L602.835 57.7534L677.818 136H662.896L594.349 64.1885L567.303 84.8926V136H555.552V2.2627H567.303V72.0225L658.513 2.2627Z" fill="white"/>
<path d="M747.969 13.0811V75.1001H816.05C821.211 75.1001 825.687 74.354 829.48 72.8618C833.273 71.3075 836.412 69.1624 838.899 66.4268C841.386 63.6911 843.221 60.4269 844.402 56.6343C845.645 52.8416 846.267 48.6759 846.267 44.1372C846.267 39.5985 845.645 35.4328 844.402 31.6401C843.221 27.8475 841.386 24.5833 838.899 21.8477C836.412 19.0498 833.273 16.9048 829.48 15.4126C825.687 13.8582 821.211 13.0811 816.05 13.0811H747.969ZM736.218 136V2.2627H816.05C822.579 2.2627 828.423 3.25749 833.584 5.24707C838.806 7.23665 843.221 10.0656 846.827 13.7339C850.495 17.34 853.293 21.7233 855.22 26.8838C857.21 32.0443 858.205 37.7954 858.205 44.1372C858.205 50.479 857.21 56.2301 855.22 61.3906C853.293 66.5511 850.495 70.9655 846.827 74.6338C843.221 78.2399 838.806 81.0378 833.584 83.0273C828.423 84.9548 822.579 85.9185 816.05 85.9185H747.969V136H736.218Z" fill="white"/>
<path d="M879.058 136V2.2627H964.392C970.237 2.2627 975.491 3.25749 980.154 5.24707C984.817 7.17448 988.765 9.84798 991.998 13.2676C995.293 16.6872 997.78 20.7285 999.459 25.3916C1001.2 29.9925 1002.07 34.9665 1002.07 40.3135C1002.07 45.2874 1001.29 49.9194 999.739 54.2095C998.246 58.4373 996.039 62.1989 993.117 65.4941C990.257 68.7272 986.713 71.4318 982.485 73.6079C978.32 75.7218 973.532 77.1519 968.123 77.8979L1002.82 136H990.039L955.626 78.3643H890.809V136H879.058ZM890.809 13.0811V67.5459H964.392C968.807 67.5459 972.631 66.8309 975.864 65.4009C979.097 63.9709 981.77 62.0435 983.884 59.6187C985.998 57.1317 987.552 54.2406 988.547 50.9453C989.604 47.5879 990.133 44.0439 990.133 40.3135C990.133 36.583 989.604 33.0701 988.547 29.7749C987.552 26.4175 985.998 23.5264 983.884 21.1016C981.77 18.6146 979.097 16.6561 975.864 15.2261C972.631 13.7961 968.807 13.0811 964.392 13.0811H890.809Z" fill="white"/>
<path d="M1097.44 137.865C1084.38 137.865 1072.91 136.093 1063.03 132.549C1053.14 128.943 1044.87 124.062 1038.22 117.907C1031.57 111.69 1026.56 104.415 1023.2 96.084C1019.85 87.6904 1018.17 78.7062 1018.17 69.1313C1018.17 59.5565 1019.85 50.6034 1023.2 42.272C1026.56 33.8784 1031.57 26.604 1038.22 20.4487C1044.87 14.2313 1053.14 9.35059 1063.03 5.80664C1072.91 2.20052 1084.38 0.397461 1097.44 0.397461C1110.5 0.397461 1121.97 2.20052 1131.85 5.80664C1141.74 9.35059 1150.01 14.2313 1156.66 20.4487C1163.31 26.604 1168.32 33.8784 1171.68 42.272C1175.03 50.6034 1176.71 59.5565 1176.71 69.1313C1176.71 78.7062 1175.03 87.6904 1171.68 96.084C1168.32 104.415 1163.31 111.69 1156.66 117.907C1150.01 124.062 1141.74 128.943 1131.85 132.549C1121.97 136.093 1110.5 137.865 1097.44 137.865ZM1097.44 127.047C1109.19 127.047 1119.29 125.493 1127.75 122.384C1136.21 119.275 1143.17 115.109 1148.64 109.887C1154.11 104.602 1158.12 98.4466 1160.67 91.4209C1163.28 84.3952 1164.59 76.9653 1164.59 69.1313C1164.59 61.2974 1163.25 53.8675 1160.58 46.8418C1157.9 39.8161 1153.8 33.6919 1148.27 28.4692C1142.8 23.1844 1135.83 18.9876 1127.38 15.8789C1118.92 12.7702 1108.94 11.2158 1097.44 11.2158C1085.69 11.2158 1075.59 12.7702 1067.13 15.8789C1058.67 18.9876 1051.71 23.1844 1046.24 28.4692C1040.77 33.6919 1036.73 39.8161 1034.11 46.8418C1031.57 53.8675 1030.29 61.2974 1030.29 69.1313C1030.29 76.9653 1031.63 84.3952 1034.3 91.4209C1036.97 98.4466 1041.05 104.602 1046.52 109.887C1052.05 115.109 1059.05 119.275 1067.5 122.384C1075.96 125.493 1085.94 127.047 1097.44 127.047Z" fill="white"/>
<path d="M1194.95 104.011C1197.25 108.301 1200.3 112.156 1204.09 115.576C1205.71 117.006 1207.54 118.436 1209.6 119.866C1211.71 121.234 1214.04 122.446 1216.59 123.503C1219.2 124.56 1222.06 125.43 1225.17 126.114C1228.28 126.736 1231.67 127.047 1235.34 127.047C1243.67 127.047 1250.57 125.959 1256.04 123.783C1261.57 121.544 1265.96 118.467 1269.19 114.55C1272.49 110.571 1274.79 105.845 1276.09 100.374C1277.4 94.8405 1278.05 88.7474 1278.05 82.0947V2.2627H1289.8V82.0947C1289.8 90.7992 1288.74 98.6021 1286.63 105.503C1284.52 112.405 1281.22 118.249 1276.74 123.037C1272.33 127.824 1266.67 131.492 1259.77 134.042C1252.93 136.591 1244.79 137.865 1235.34 137.865C1230.36 137.865 1225.82 137.43 1221.72 136.56C1217.68 135.751 1213.98 134.663 1210.62 133.295C1207.33 131.928 1204.37 130.373 1201.76 128.632C1199.21 126.891 1196.97 125.119 1195.05 123.316C1190.51 119.026 1187 114.146 1184.51 108.674L1194.95 104.011Z" fill="white"/>
<path d="M1420.98 62.23V73.0483H1324.36V125.182H1427.32V136H1312.61V2.2627H1426.39V13.0811H1324.36V62.23H1420.98Z" fill="white"/>
<path d="M1456.57 69.1313C1456.57 76.9653 1457.85 84.3952 1460.4 91.4209C1463.01 98.4466 1467.05 104.602 1472.52 109.887C1477.99 115.109 1484.95 119.275 1493.41 122.384C1501.87 125.493 1511.97 127.047 1523.72 127.047C1533.48 127.047 1542.12 125.897 1549.65 123.596C1557.23 121.234 1563.76 118.342 1569.23 114.923L1575.76 123.689C1569.29 128.166 1561.74 131.648 1553.1 134.135C1544.46 136.622 1534.66 137.865 1523.72 137.865C1510.66 137.865 1499.19 136.093 1489.31 132.549C1479.42 128.943 1471.15 124.062 1464.5 117.907C1457.85 111.69 1452.84 104.415 1449.48 96.084C1446.13 87.6904 1444.45 78.7062 1444.45 69.1313C1444.45 59.5565 1446.13 50.6034 1449.48 42.272C1452.84 33.8784 1457.85 26.604 1464.5 20.4487C1471.15 14.2313 1479.42 9.35059 1489.31 5.80664C1499.19 2.20052 1510.66 0.397461 1523.72 0.397461C1534.66 0.397461 1544.46 1.64095 1553.1 4.12793C1561.74 6.61491 1569.29 10.0967 1575.76 14.5732L1569.23 23.3398C1563.76 19.9202 1557.23 17.0602 1549.65 14.7598C1542.12 12.3971 1533.48 11.2158 1523.72 11.2158C1511.97 11.2158 1501.87 12.7702 1493.41 15.8789C1484.95 18.9876 1477.99 23.1844 1472.52 28.4692C1467.05 33.6919 1463.01 39.8161 1460.4 46.8418C1457.85 53.8675 1456.57 61.2974 1456.57 69.1313Z" fill="white"/>
<path d="M1716.55 2.2627V13.0811H1657.79V136H1646.04V13.0811H1587.29V2.2627H1716.55Z" fill="white"/>
</svg>
