<svg width="32" height="32" viewBox="0 0 32 32" fill="none" xmlns="http://www.w3.org/2000/svg">
<path d="M17.626 0.167969C19.4072 0.172719 20.3113 0.182219 21.0919 0.204385L21.3991 0.215469C21.7537 0.228135 22.1036 0.243969 22.5264 0.262969C24.2111 0.342135 25.3606 0.608136 26.3691 0.999219C27.4141 1.40139 28.2945 1.94605 29.1748 2.8248C29.9799 3.6163 30.6029 4.57373 31.0004 5.63047C31.3915 6.63905 31.6575 7.78855 31.7366 9.4748C31.7556 9.89597 31.7715 10.2459 31.7841 10.6021L31.7936 10.9093C31.8174 11.6883 31.8269 12.5924 31.8301 14.3736L31.8316 15.5548V17.629C31.8355 18.7839 31.8234 19.9387 31.7952 21.0933L31.7857 21.4005C31.7731 21.7567 31.7572 22.1066 31.7382 22.5278C31.6591 24.2141 31.3899 25.362 31.0004 26.3721C30.604 27.4294 29.9809 28.3871 29.1748 29.1778C28.3831 29.9826 27.4257 30.6056 26.3691 31.0034C25.3606 31.3945 24.2111 31.6605 22.5264 31.7396C22.1507 31.7573 21.7749 31.7732 21.3991 31.7871L21.0919 31.7966C20.3113 31.8188 19.4072 31.8299 17.626 31.8331L16.4448 31.8346H14.3722C13.2168 31.8386 12.0614 31.8265 10.9063 31.7982L10.5991 31.7887C10.2233 31.7745 9.84749 31.7581 9.47181 31.7396C7.78714 31.6605 6.63764 31.3945 5.62748 31.0034C4.57087 30.6066 3.61382 29.9835 2.82339 29.1778C2.01755 28.3866 1.394 27.4291 0.996226 26.3721C0.605143 25.3636 0.339143 24.2141 0.259976 22.5278C0.242336 22.1521 0.226502 21.7763 0.212476 21.4005L0.20456 21.0933C0.175382 19.9388 0.162186 18.7839 0.164976 17.629V14.3736C0.160557 13.2188 0.172169 12.0639 0.19981 10.9093L0.210893 10.6021C0.223559 10.2459 0.239393 9.89597 0.258393 9.4748C0.337559 7.78855 0.603559 6.64064 0.994643 5.63047C1.39224 4.57265 2.01703 3.61492 2.82498 2.8248C3.61521 2.01964 4.57162 1.39661 5.62748 0.999219C6.63764 0.608136 7.78556 0.342135 9.47181 0.262969C9.89298 0.243969 10.2445 0.228135 10.5991 0.215469L10.9063 0.205969C12.0609 0.177837 13.2158 0.165697 14.3706 0.169552L17.626 0.167969ZM15.9983 8.08463C13.8987 8.08464 11.885 8.91871 10.4004 10.4034C8.91572 11.888 8.08164 13.9017 8.08164 16.0013C8.08164 18.1009 8.91572 20.1146 10.4004 21.5992C11.885 23.0839 13.8987 23.918 15.9983 23.918C18.0979 23.918 20.1116 23.0839 21.5962 21.5992C23.0809 20.1146 23.915 18.1009 23.915 16.0013C23.915 13.9017 23.0809 11.888 21.5962 10.4034C20.1116 8.91871 18.0979 8.08463 15.9983 8.08463ZM15.9983 11.2513C16.6221 11.2512 17.2398 11.374 17.8161 11.6126C18.3925 11.8512 18.9161 12.201 19.3573 12.642C19.7985 13.083 20.1484 13.6066 20.3872 14.1828C20.626 14.7591 20.749 15.3767 20.7491 16.0005C20.7492 16.6243 20.6264 17.242 20.3878 17.8183C20.1492 18.3947 19.7994 18.9183 19.3584 19.3595C18.9174 19.8006 18.3938 20.1506 17.8176 20.3894C17.2413 20.6282 16.6237 20.7512 15.9999 20.7513C14.7401 20.7513 13.5319 20.2509 12.6411 19.3601C11.7503 18.4693 11.2499 17.2611 11.2499 16.0013C11.2499 14.7415 11.7503 13.5333 12.6411 12.6425C13.5319 11.7517 14.7401 11.2513 15.9999 11.2513M24.3124 5.70964C23.7875 5.70964 23.2841 5.91815 22.9129 6.28932C22.5417 6.66049 22.3332 7.16389 22.3332 7.6888C22.3332 8.21371 22.5417 8.71712 22.9129 9.08828C23.2841 9.45945 23.7875 9.66797 24.3124 9.66797C24.8373 9.66797 25.3407 9.45945 25.7119 9.08828C26.083 8.71712 26.2916 8.21371 26.2916 7.6888C26.2916 7.16389 26.083 6.66049 25.7119 6.28932C25.3407 5.91815 24.8373 5.70964 24.3124 5.70964Z" fill="white"/>
</svg>
