<svg width="199" height="48" viewBox="0 0 199 48" fill="none" xmlns="http://www.w3.org/2000/svg">
<path d="M58.7369 17.4448V0.357464H69.4327C70.5157 0.357464 71.4288 0.476632 72.1718 0.714948C72.9229 0.945322 73.5276 1.26308 73.986 1.66821C74.4525 2.06542 74.7846 2.53808 74.9821 3.0862C75.1876 3.62639 75.2905 4.20631 75.2905 4.82593C75.2905 5.36612 75.2034 5.84671 75.0296 6.26775C74.8557 6.68083 74.6344 7.03831 74.3656 7.34018C74.1046 7.64203 73.8122 7.88831 73.4881 8.07896C73.1718 8.26962 72.8715 8.40863 72.5869 8.49601C73.0613 8.61518 73.496 8.78596 73.8912 9.00839C74.2865 9.23083 74.6263 9.50887 74.9109 9.84251C75.2034 10.1682 75.4289 10.5535 75.5869 10.9983C75.745 11.4432 75.824 11.9437 75.824 12.4998C75.824 13.1909 75.7014 13.8383 75.4565 14.442C75.2115 15.0458 74.8279 15.5701 74.3063 16.0149C73.7846 16.4597 73.1204 16.8093 72.3141 17.0636C71.5078 17.3177 70.5474 17.4448 69.4327 17.4448H58.7369ZM69.4327 14.7518C70.0494 14.7518 70.5592 14.6962 70.9623 14.585C71.3734 14.4738 71.7015 14.3189 71.9465 14.1203C72.1915 13.9138 72.3616 13.6635 72.4564 13.3696C72.5593 13.0757 72.6105 12.746 72.6105 12.3806C72.6105 12.0152 72.5553 11.6855 72.4446 11.3916C72.3338 11.0897 72.1521 10.8395 71.899 10.6409C71.6541 10.4343 71.3259 10.2755 70.915 10.1642C70.5117 10.053 70.0176 9.99741 69.4327 9.99741H61.9384V14.7518H69.4327ZM69.4327 7.29251C71.1956 7.29251 72.077 6.58551 72.077 5.17149C72.077 3.75746 71.1956 3.05046 69.4327 3.05046H61.9384V7.29251H69.4327ZM82.1206 14.7518H93.8954V17.4448H78.9189V0.357464H82.1206V14.7518ZM111.564 13.5841H101.39L99.3027 17.4448H95.923L105.125 0.357464H107.84L117.042 17.4448H113.662L111.564 13.5841ZM102.848 10.8792H110.105L106.477 4.18246L102.848 10.8792ZM120.872 8.90115C120.872 9.79882 121.022 10.625 121.323 11.3796C121.623 12.1343 122.085 12.7897 122.71 13.3458C123.335 13.9018 124.129 14.3348 125.093 14.6446C126.066 14.9544 127.22 15.1093 128.556 15.1093C129.394 15.1093 130.161 15.0378 130.856 14.8948C131.552 14.7518 132.153 14.589 132.659 14.4063C133.252 14.1998 133.785 13.9614 134.259 13.6913L135.801 15.8719C135.319 16.2373 134.726 16.5591 134.022 16.8372C133.421 17.0834 132.667 17.3058 131.757 17.5044C130.856 17.7031 129.789 17.8023 128.556 17.8023C126.738 17.8023 125.145 17.5799 123.777 17.1351C122.417 16.6903 121.279 16.0745 120.362 15.2881C119.453 14.4937 118.769 13.5523 118.311 12.464C117.852 11.3757 117.623 10.1881 117.623 8.90115C117.623 7.61425 117.852 6.42663 118.311 5.33831C118.769 4.25 119.453 3.31262 120.362 2.52615C121.279 1.73177 122.417 1.11214 123.777 0.667277C125.145 0.222432 126.738 0 128.556 0C129.781 0 130.848 0.103264 131.757 0.309813C132.667 0.508399 133.421 0.72687 134.022 0.965186C134.726 1.25115 135.319 1.57289 135.801 1.93037L134.259 4.11096C133.785 3.84882 133.252 3.61447 132.659 3.40794C132.153 3.22522 131.552 3.06238 130.856 2.91939C130.161 2.76845 129.394 2.69299 128.556 2.69299C127.22 2.69299 126.066 2.84789 125.093 3.1577C124.129 3.46751 123.335 3.90046 122.71 4.45653C122.085 5.01262 121.623 5.67195 121.323 6.43457C121.022 7.18925 120.872 8.01144 120.872 8.90115ZM151.536 0.357464H156.019L147.066 7.56657L156.019 17.4448H151.951L144.754 9.44928L141.86 11.7848V17.4448H138.659V0.357464H141.86V8.15045L151.536 0.357464ZM61.9384 33.1543V39.2076H69.5986C70.152 39.2076 70.6225 39.1242 71.0098 38.9574C71.4049 38.7905 71.7252 38.5681 71.9702 38.2902C72.2232 38.0121 72.405 37.6903 72.5157 37.3249C72.6344 36.9595 72.6935 36.5782 72.6935 36.1809C72.6935 35.7839 72.6344 35.4024 72.5157 35.037C72.405 34.6716 72.2232 34.35 71.9702 34.0719C71.7252 33.7938 71.4049 33.5714 71.0098 33.4047C70.6225 33.2377 70.152 33.1543 69.5986 33.1543H61.9384ZM58.7369 47.5487V30.4614H69.5986C70.6185 30.4614 71.5196 30.5965 72.3023 30.8664C73.0928 31.1366 73.7528 31.522 74.2826 32.0224C74.8201 32.5148 75.2272 33.1147 75.504 33.8215C75.7807 34.5286 75.9188 35.3151 75.9188 36.1809C75.9188 37.0548 75.7807 37.8452 75.504 38.5522C75.2272 39.2513 74.8201 39.851 74.2826 40.3515C73.7528 40.8441 73.0928 41.2253 72.3023 41.4955C71.5196 41.7656 70.6185 41.9007 69.5986 41.9007H61.9384V47.5487H58.7369ZM79.251 47.5487V30.4614H90.006C91.0415 30.4614 91.9546 30.5886 92.7452 30.8427C93.5436 31.089 94.2117 31.4465 94.7491 31.9151C95.2868 32.3839 95.6938 32.9517 95.9705 33.6191C96.2472 34.2785 96.3856 35.0212 96.3856 35.8474C96.3856 36.602 96.2709 37.2574 96.0416 37.8135C95.8124 38.3696 95.5121 38.8461 95.1406 39.2434C94.7689 39.6326 94.3498 39.9544 93.8835 40.2085C93.417 40.4628 92.9468 40.6613 92.4724 40.8043L96.4092 47.5487H92.8993L89.2234 41.2332H82.4527V47.5487H79.251ZM82.4527 33.1543V38.5403H90.006C91.0021 38.5403 91.7769 38.3298 92.3301 37.9088C92.8835 37.4798 93.1602 36.7927 93.1602 35.8474C93.1602 34.91 92.8835 34.2268 92.3301 33.7978C91.7769 33.3688 91.0021 33.1543 90.006 33.1543H82.4527ZM109.963 47.9062C108.145 47.9062 106.552 47.6838 105.184 47.239C103.824 46.7942 102.686 46.1784 101.769 45.3919C100.86 44.5976 100.176 43.6562 99.7175 42.5679C99.2591 41.4796 99.0299 40.2919 99.0299 39.005C99.0299 37.7182 99.2591 36.5305 99.7175 35.4422C100.176 34.3539 100.86 33.4165 101.769 32.6301C102.686 31.8357 103.824 31.216 105.184 30.7712C106.552 30.3263 108.145 30.1039 109.963 30.1039C111.773 30.1039 113.362 30.3263 114.73 30.7712C116.097 31.216 117.236 31.8357 118.145 32.6301C119.062 33.4165 119.749 34.3539 120.208 35.4422C120.667 36.5305 120.896 37.7182 120.896 39.005C120.896 40.2919 120.667 41.4796 120.208 42.5679C119.749 43.6562 119.062 44.5976 118.145 45.3919C117.236 46.1784 116.097 46.7942 114.73 47.239C113.362 47.6838 111.773 47.9062 109.963 47.9062ZM109.963 45.2133C111.299 45.2133 112.449 45.0582 113.413 44.7485C114.386 44.4387 115.184 44.0058 115.809 43.4496C116.433 42.8935 116.896 42.2382 117.196 41.4836C117.496 40.7288 117.647 39.9027 117.647 39.005C117.647 38.1153 117.496 37.2932 117.196 36.5384C116.896 35.7759 116.433 35.1164 115.809 34.5605C115.184 34.0044 114.386 33.5714 113.413 33.2617C112.449 32.9517 111.299 32.7968 109.963 32.7968C108.627 32.7968 107.473 32.9517 106.5 33.2617C105.536 33.5714 104.741 34.0044 104.117 34.5605C103.492 35.1164 103.03 35.7759 102.729 36.5384C102.429 37.2932 102.279 38.1153 102.279 39.005C102.279 39.9027 102.429 40.7288 102.729 41.4836C103.03 42.2382 103.492 42.8935 104.117 43.4496C104.741 44.0058 105.536 44.4387 106.5 44.7485C107.473 45.0582 108.627 45.2133 109.963 45.2133ZM125.176 42.1389C125.469 42.7188 125.848 43.2312 126.315 43.676C126.512 43.8667 126.738 44.0575 126.991 44.248C127.251 44.4308 127.54 44.5936 127.856 44.7366C128.18 44.8796 128.536 44.9949 128.924 45.0822C129.311 45.1695 129.73 45.2133 130.18 45.2133C131.066 45.2133 131.809 45.106 132.41 44.8915C133.011 44.6691 133.493 44.3514 133.856 43.9382C134.228 43.5172 134.493 43.0048 134.651 42.4012C134.809 41.7973 134.888 41.1142 134.888 40.3515V30.4614H138.09V40.3515C138.09 41.4557 137.939 42.4727 137.639 43.4019C137.339 44.3235 136.868 45.1178 136.228 45.7853C135.596 46.4525 134.789 46.9728 133.809 47.3461C132.829 47.7194 131.659 47.9062 130.299 47.9062C129.532 47.9062 128.832 47.8387 128.2 47.7036C127.576 47.5685 127.01 47.3939 126.504 47.1794C125.999 46.957 125.548 46.7066 125.153 46.4285C124.765 46.1507 124.425 45.8647 124.133 45.5708C123.445 44.8875 122.919 44.105 122.556 43.2233L125.176 42.1389ZM156.979 37.4798V40.1848H144.849V44.8558H157.619V47.5487H141.647V30.4614H157.501V33.1543H144.849V37.4798H156.979ZM163.726 39.005C163.726 39.9027 163.876 40.7288 164.177 41.4836C164.477 42.2382 164.94 42.8935 165.564 43.4496C166.189 44.0058 166.983 44.4387 167.948 44.7485C168.92 45.0582 170.074 45.2133 171.41 45.2133C172.248 45.2133 173.015 45.1418 173.71 44.9988C174.406 44.8558 175.007 44.6928 175.513 44.5102C176.106 44.3037 176.639 44.0654 177.114 43.7952L178.655 45.9758C178.173 46.3412 177.58 46.663 176.876 46.9411C176.276 47.1873 175.521 47.4097 174.612 47.6083C173.71 47.807 172.643 47.9062 171.41 47.9062C169.592 47.9062 167.999 47.6838 166.631 47.239C165.272 46.7942 164.133 46.1784 163.216 45.3919C162.307 44.5976 161.623 43.6562 161.165 42.5679C160.706 41.4796 160.477 40.2919 160.477 39.005C160.477 37.7182 160.706 36.5305 161.165 35.4422C161.623 34.3539 162.307 33.4165 163.216 32.6301C164.133 31.8357 165.272 31.216 166.631 30.7712C167.999 30.3263 169.592 30.1039 171.41 30.1039C172.635 30.1039 173.703 30.2071 174.612 30.4137C175.521 30.6123 176.276 30.8308 176.876 31.069C177.58 31.355 178.173 31.6768 178.655 32.0343L177.114 34.2149C176.639 33.9527 176.106 33.7184 175.513 33.5118C175.007 33.3292 174.406 33.1662 173.71 33.0232C173.015 32.8723 172.248 32.7968 171.41 32.7968C170.074 32.7968 168.92 32.9517 167.948 33.2617C166.983 33.5714 166.189 34.0044 165.564 34.5605C164.94 35.1164 164.477 35.7759 164.177 36.5384C163.876 37.2932 163.726 38.1153 163.726 39.005ZM198.684 30.4614V33.1543H191.343V47.5487H188.142V33.1543H180.801V30.4614H198.684Z" fill="white"/>
<path d="M4.53301 0.412369H0V47.5487H4.53301V0.412369Z" fill="white"/>
<path d="M10.2284 5.21922L14.7207 5.82802L9.16451 47.5487H4.53296L10.2284 5.21922Z" fill="white"/>
<path d="M19.3146 11.5034L25.1287 13.1868L14.3874 47.5487H9.16455L19.3146 11.5034Z" fill="white"/>
<path d="M27.7893 18.9302L32.7165 21.4059L19.6102 47.5487H14.3873L27.7893 18.9302Z" fill="white"/>
<path d="M34.5889 28.0406L38.6292 31.3085L25.8185 47.5487H19.6102L34.5889 28.0406Z" fill="white"/>
<path d="M39.5161 38.0422L42.4724 42.4984L34.3918 47.5487H25.8185L39.5161 38.0422Z" fill="white"/>
<path d="M45.9214 19.0295V24.1788L18.1321 15.7615L19.3146 11.5034L45.9214 19.0295Z" fill="white"/>
<path d="M45.9213 27.8428V33.2892L25.7198 23.4856L27.7893 18.9304L45.9213 27.8428Z" fill="white"/>
<path d="M45.9213 37.151V42.9935L31.8296 31.6056L34.5888 28.0406L45.9213 37.151Z" fill="white"/>
<path d="M45.9214 47.5487H39.8117L35.2787 41.013L39.5161 38.0422L45.9214 47.5487Z" fill="white"/>
<path d="M10.2485 5.1656L9.65723 9.62177L45.9221 14.8703V10.117L10.2485 5.1656Z" fill="white"/>
<path d="M45.9214 4.96756V0.412369L2.67029e-05 0.412369V4.96756L45.9214 4.96756Z" fill="white"/>
</svg>
