<svg width="32" height="28" viewBox="0 0 32 28" fill="none" xmlns="http://www.w3.org/2000/svg">
<path d="M19.8195 0.312012C19.6138 0.312012 19.4047 0.367788 19.2129 0.496772L6.85494 8.57391H1.13784C0.831072 8.57391 0.580078 8.8249 0.580078 9.13167V19.1714C0.580078 19.4782 0.831072 19.7292 1.13784 19.7292H6.85494L19.2129 27.8064C19.4047 27.9318 19.6173 27.9911 19.8195 27.9911C20.4017 27.9911 20.9385 27.5275 20.9385 26.8721V1.43103C20.9385 0.775654 20.4017 0.312012 19.8195 0.312012ZM18.4286 24.2959L8.22843 17.6271L7.60095 17.2193H3.09002V11.0839H7.60095L8.22495 10.676L18.4286 4.00721V24.2959ZM30.56 12.8966H26.0978C25.7911 12.8966 25.5401 13.1476 25.5401 13.4544V14.8488C25.5401 15.1555 25.7911 15.4065 26.0978 15.4065H30.56C30.8667 15.4065 31.1177 15.1555 31.1177 14.8488V13.4544C31.1177 13.1476 30.8667 12.8966 30.56 12.8966ZM29.0993 22.023L25.2542 19.8024C25.191 19.7662 25.1214 19.7429 25.0492 19.7336C24.9769 19.7244 24.9036 19.7295 24.8334 19.7486C24.7631 19.7677 24.6973 19.8004 24.6397 19.8449C24.5822 19.8895 24.5339 19.9449 24.4977 20.0081L23.804 21.2108C23.6506 21.4757 23.7413 21.8173 24.0062 21.9707L27.8513 24.1913C27.9145 24.2275 27.9842 24.2509 28.0564 24.2601C28.1286 24.2694 28.2019 24.2643 28.2721 24.2452C28.3424 24.2261 28.4082 24.1933 28.4658 24.1488C28.5234 24.1043 28.5716 24.0488 28.6078 23.9857L29.3015 22.783C29.4549 22.518 29.3608 22.1764 29.0993 22.023ZM24.4943 8.29503C24.5304 8.35821 24.5787 8.41364 24.6363 8.45817C24.6938 8.5027 24.7596 8.53545 24.8299 8.55455C24.9001 8.57365 24.9735 8.57873 25.0457 8.56949C25.1179 8.56025 25.1876 8.53687 25.2507 8.5007L29.0958 6.2801C29.3608 6.12671 29.4514 5.78508 29.298 5.52014L28.6078 4.32095C28.5716 4.25777 28.5234 4.20233 28.4658 4.1578C28.4082 4.11327 28.3424 4.08052 28.2721 4.06142C28.2019 4.04232 28.1286 4.03725 28.0564 4.04649C27.9842 4.05573 27.9145 4.0791 27.8513 4.11527L24.0062 6.33588C23.8789 6.41009 23.7862 6.53171 23.7483 6.67412C23.7104 6.81654 23.7304 6.96816 23.804 7.09583L24.4943 8.29503Z" fill="white"/>
</svg>
