<svg width="460" height="460" viewBox="0 0 460 460" fill="none" xmlns="http://www.w3.org/2000/svg">
<path d="M230 0C357.03 0 460 102.97 460 230C460 357.03 357.03 460 230 460C102.97 460 0 357.03 0 230C0 102.97 102.97 0 230 0ZM309.34 323.75C313.57 310.77 333.39 181.41 335.84 155.92C336.58 148.2 334.14 143.07 329.36 140.78C323.58 138 315.02 139.39 305.09 142.97C291.47 147.88 117.35 221.81 107.29 226.09C97.75 230.14 88.73 234.56 88.73 240.96C88.73 245.46 91.4 247.99 98.76 250.62C106.42 253.35 125.71 259.2 137.1 262.34C148.07 265.37 160.56 262.74 167.56 258.39C174.98 253.78 260.61 196.48 266.76 191.46C272.9 186.44 277.8 192.87 272.78 197.9C267.76 202.92 208.98 259.97 201.23 267.87C191.82 277.46 198.5 287.4 204.81 291.38C212.02 295.92 263.87 330.7 271.68 336.28C279.49 341.86 287.41 344.39 294.66 344.39C301.91 344.39 305.73 334.84 309.34 323.75Z" fill="white"/>
</svg>
