<svg width="32" height="32" viewBox="0 0 32 32" fill="none" xmlns="http://www.w3.org/2000/svg">
<g clip-path="url(#clip0_1439_16)">
<path d="M16 0C24.8368 0 32 7.16313 32 16C32 24.8368 24.8368 32 16 32C7.16313 32 0 24.8368 0 16C0 7.16313 7.16313 0 16 0ZM21.5193 22.5217C21.8136 21.6188 23.1924 12.6198 23.3628 10.8466C23.4142 10.3096 23.2446 9.9527 22.912 9.79339C22.5099 9.6 21.9144 9.6967 21.2236 9.94573C20.2762 10.2873 8.16348 15.4303 7.46366 15.7279C6.8 16.0098 6.17252 16.3172 6.17252 16.7624C6.17252 17.0754 6.35827 17.2515 6.87027 17.4344C7.40313 17.6244 8.74504 18.0313 9.53739 18.2498C10.3005 18.4605 11.1694 18.2776 11.6563 17.9749C12.1726 17.6542 18.1294 13.6682 18.5572 13.319C18.9843 12.9698 19.3252 13.4171 18.976 13.767C18.6268 14.1162 14.5378 18.0848 13.9986 18.6344C13.344 19.3016 13.8087 19.993 14.2476 20.2699C14.7492 20.5858 18.3562 23.0052 18.8994 23.3933C19.4428 23.7816 19.9937 23.9576 20.4981 23.9576C21.0024 23.9576 21.2682 23.2932 21.5193 22.5217Z" fill="white"/>
</g>
<defs>
<clipPath id="clip0_1439_16">
<rect width="32" height="32" fill="white"/>
</clipPath>
</defs>
</svg>
