<svg width="32" height="32" viewBox="0 0 32 32" fill="none" xmlns="http://www.w3.org/2000/svg">
<path d="M16.0013 0.167969C12.8698 0.167969 9.80856 1.09658 7.20478 2.83637C4.601 4.57616 2.5716 7.04898 1.37322 9.94215C0.174829 12.8353 -0.138724 16.0189 0.472209 19.0902C1.08314 22.1616 2.59112 24.9828 4.80545 27.1972C7.01978 29.4115 9.84101 30.9195 12.9124 31.5304C15.9837 32.1413 19.1673 31.8278 22.0605 30.6294C24.9536 29.431 27.4265 27.4016 29.1662 24.7978C30.906 22.1941 31.8346 19.1328 31.8346 16.0013C31.8304 11.8033 30.161 7.77849 27.1925 4.81007C24.2241 1.84166 20.1993 0.17216 16.0013 0.167969ZM25.4047 12.3802V13.4031C25.4048 13.4813 25.3891 13.5588 25.3587 13.631C25.3282 13.7031 25.2837 13.7684 25.2276 13.823C25.1715 13.8776 25.105 13.9204 25.0321 13.9489C24.9592 13.9774 24.8813 13.991 24.8031 13.9889C23.1314 13.8704 21.5321 13.26 20.2066 12.2346V19.7206C20.2064 20.5491 20.0411 21.3693 19.7203 22.1332C19.3995 22.8971 18.9297 23.5894 18.3383 24.1697C17.7416 24.7645 17.0325 25.2346 16.2524 25.5526C15.4722 25.8707 14.6366 26.0303 13.7941 26.0222C12.0999 26.0193 10.4738 25.3545 9.26264 24.1697C8.49218 23.3929 7.93722 22.429 7.65238 21.3726C7.36755 20.3163 7.36264 19.204 7.63814 18.1451C7.88989 17.1286 8.39814 16.1945 9.11539 15.4329C9.65029 14.7791 10.3245 14.2531 11.0888 13.8934C11.8532 13.5338 12.6882 13.3494 13.5329 13.354H14.8312V16.0504C14.8318 16.1287 14.8157 16.2062 14.7839 16.2778C14.7522 16.3494 14.7055 16.4134 14.6471 16.4655C14.5887 16.5177 14.5198 16.5568 14.4451 16.5802C14.3703 16.6036 14.2915 16.6108 14.2137 16.6014C13.4599 16.375 12.6476 16.4501 11.948 16.8109C11.2485 17.1717 10.7164 17.79 10.4638 18.5355C10.2113 19.281 10.2581 20.0954 10.5943 20.8071C10.9305 21.5188 11.53 22.0721 12.2662 22.3505C12.6937 22.5959 13.1719 22.74 13.6627 22.7732C14.0427 22.7891 14.4227 22.7416 14.7837 22.6276C15.3866 22.4246 15.9111 22.0385 16.2838 21.5229C16.6566 21.0074 16.8589 20.3884 16.8626 19.7522V6.1118C16.8624 6.03702 16.877 5.96294 16.9055 5.89379C16.9339 5.82465 16.9758 5.7618 17.0286 5.70885C17.0814 5.6559 17.1441 5.61389 17.2132 5.58522C17.2822 5.55656 17.3563 5.5418 17.4311 5.5418H19.6715C19.8172 5.5416 19.9574 5.59734 20.0631 5.69751C20.1689 5.79769 20.2322 5.93466 20.2399 6.08014C20.3218 6.77867 20.5438 7.45351 20.8926 8.06427C21.2414 8.67503 21.7097 9.20916 22.2697 9.63472C23.0267 10.203 23.9258 10.5514 24.868 10.6417C25.0091 10.6538 25.1411 10.7166 25.2395 10.8185C25.3379 10.9203 25.396 11.0544 25.4031 11.1959L25.4047 12.3802Z" fill="white"/>
</svg>
