<svg width="32" height="32" viewBox="0 0 32 32" fill="none" xmlns="http://www.w3.org/2000/svg">
<g clip-path="url(#clip0_1439_8)">
<path d="M2.24 2.24C1.33849e-07 4.50133 0 8.11733 0 15.36V16.64C0 23.872 1.33849e-07 27.488 2.24 29.76C4.50134 32 8.11734 32 15.36 32H16.64C23.872 32 27.488 32 29.76 29.76C32 27.4987 32 23.8827 32 16.64V15.36C32 8.128 32 4.512 29.76 2.24C27.4987 -1.33849e-07 23.8827 0 16.64 0H15.36C8.12801 0 4.51201 -1.33849e-07 2.24 2.24ZM5.39734 9.73867H9.06668C9.18401 15.84 11.872 18.4213 14.0053 18.9547V9.73867H17.4507V14.9973C19.552 14.7733 21.7707 12.3733 22.5173 9.728H25.952C25.6721 11.0974 25.1127 12.3943 24.3088 13.5377C23.5049 14.6812 22.4739 15.6464 21.28 16.3733C22.6123 17.0362 23.7889 17.9741 24.7322 19.1251C25.6754 20.2761 26.3638 21.614 26.752 23.0507H22.9653C22.1547 20.5227 20.128 18.56 17.4507 18.2933V23.0507H17.024C9.72801 23.0507 5.56801 18.0587 5.39734 9.73867Z" fill="white"/>
</g>
<defs>
<clipPath id="clip0_1439_8">
<rect width="32" height="32" fill="white"/>
</clipPath>
</defs>
</svg>
