<svg width="30" height="30" viewBox="0 0 30 30" fill="none" xmlns="http://www.w3.org/2000/svg">
<path d="M2.74482 2.745C0.749817 4.759 0.749817 7.9795 0.749817 14.43V15.57C0.749817 22.011 0.749817 25.2315 2.74482 27.255C4.75882 29.25 7.97932 29.25 14.4298 29.25H15.5698C22.0108 29.25 25.2313 29.25 27.2548 27.255C29.2498 25.241 29.2498 22.0205 29.2498 15.57V14.43C29.2498 7.989 29.2498 4.7685 27.2548 2.745C25.2408 0.75 22.0203 0.75 15.5698 0.75H14.4298C7.98882 0.75 4.76832 0.75 2.74482 2.745ZM5.55682 9.4235H8.82482C8.92932 14.8575 11.3233 17.1565 13.2233 17.6315V9.4235H16.2918V14.107C18.1633 13.9075 20.1393 11.77 20.8043 9.414H23.8633C23.614 10.6336 23.1158 11.7887 22.3998 12.807C21.6839 13.8254 20.7656 14.6851 19.7023 15.3325C20.8889 15.9229 21.9368 16.7582 22.7769 17.7833C23.617 18.8084 24.2301 20 24.5758 21.2795H21.2033C20.4813 19.028 18.6763 17.28 16.2918 17.0425V21.2795H15.9118C9.41382 21.2795 5.70882 16.8335 5.55682 9.4235Z" fill="white"/>
</svg>
