<svg width="32" height="32" viewBox="0 0 32 32" fill="none" xmlns="http://www.w3.org/2000/svg">
<g clip-path="url(#clip0_1439_10)">
<mask id="mask0_1439_10" style="mask-type:luminance" maskUnits="userSpaceOnUse" x="0" y="0" width="32" height="32">
<path d="M32 0H0V32H32V0Z" fill="white"/>
</mask>
<g mask="url(#mask0_1439_10)">
<path fill-rule="evenodd" clip-rule="evenodd" d="M17.626 0.167969C19.4072 0.172719 20.3113 0.182219 21.0919 0.204385L21.3991 0.215469C21.7425 0.227733 22.0814 0.242968 22.4864 0.261171L22.5264 0.262969C24.2111 0.342135 25.3606 0.608136 26.3691 0.999219C27.4141 1.40139 28.2945 1.94605 29.1748 2.8248C29.9799 3.6163 30.6029 4.57373 31.0004 5.63047C31.3915 6.63905 31.6575 7.78855 31.7366 9.4748L31.7384 9.51384C31.7566 9.91771 31.7719 10.257 31.7841 10.6021L31.7936 10.9093C31.8174 11.6883 31.8269 12.5924 31.8301 14.3736L31.8316 15.5548V17.629C31.8355 18.7839 31.8234 19.9387 31.7952 21.0933L31.7857 21.4005C31.7735 21.745 31.7582 22.0835 31.7401 22.4864L31.74 22.4874L31.7382 22.5278C31.6591 24.2141 31.3899 25.362 31.0004 26.3721C30.604 27.4294 29.9809 28.3871 29.1748 29.1778C28.3831 29.9826 27.4257 30.6056 26.3691 31.0034C25.3606 31.3945 24.2111 31.6605 22.5264 31.7396C22.1507 31.7573 21.7749 31.7732 21.3991 31.7871L21.0919 31.7966C20.3113 31.8188 19.4072 31.8299 17.626 31.8331L16.4448 31.8346H14.3722C13.2168 31.8386 12.0614 31.8265 10.9063 31.7982L10.5991 31.7887C10.2233 31.7745 9.84749 31.7581 9.47181 31.7396C7.78714 31.6605 6.63764 31.3945 5.62748 31.0034C4.57087 30.6066 3.61382 29.9835 2.82339 29.1778C2.01755 28.3866 1.394 27.4291 0.996226 26.3721C0.605143 25.3636 0.339143 24.2141 0.259976 22.5278C0.242336 22.1521 0.226502 21.7763 0.212476 21.4005L0.20456 21.0933C0.175382 19.9388 0.162186 18.7839 0.164976 17.629V14.3736C0.160557 13.2188 0.172169 12.0639 0.19981 10.9093L0.210893 10.6021C0.223385 10.2508 0.23896 9.90556 0.257614 9.49208L0.258393 9.4748C0.337559 7.78855 0.603559 6.64064 0.994643 5.63047C1.39224 4.57265 2.01703 3.61492 2.82498 2.8248C3.61521 2.01964 4.57162 1.39661 5.62748 0.999219C6.63764 0.608136 7.78556 0.342135 9.47181 0.262969C9.89298 0.243969 10.2445 0.228135 10.5991 0.215469L10.9063 0.205969C12.0609 0.177837 13.2158 0.165697 14.3706 0.169552L17.626 0.167969ZM11.25 22.8612L24 15.5L11.25 8.13878V22.8612Z" fill="white"/>
</g>
</g>
<defs>
<clipPath id="clip0_1439_10">
<rect width="32" height="32" fill="white"/>
</clipPath>
</defs>
</svg>
